<?xml version="1.0" encoding="utf-8"?>
<!-- Generator: Adobe Illustrator 14.0.0, SVG Export Plug-In  -->
<!DOCTYPE svg PUBLIC "-//W3C//DTD SVG 1.1//EN" "http://www.w3.org/Graphics/SVG/1.1/DTD/svg11.dtd" [
	<!ENTITY ns_flows "http://ns.adobe.com/Flows/1.0/">
]>
<svg version="1.1"
	 xmlns="http://www.w3.org/2000/svg" xmlns:xlink="http://www.w3.org/1999/xlink" xmlns:a="http://ns.adobe.com/AdobeSVGViewerExtensions/3.0/"
	 x="0px" y="0px" width="15px" height="14px" viewBox="-0.998 -0.885 15 14" enable-background="new -0.998 -0.885 15 14"
	 xml:space="preserve">
<defs>
</defs>
<path fill-rule="evenodd" clip-rule="evenodd" fill="#FFFFFF" d="M12.453,10.793l-3.15-3.151c1.187-1.934,0.946-4.497-0.728-6.171
	c-1.961-1.96-5.143-1.96-7.103,0c-1.962,1.961-1.962,5.142,0,7.103c1.489,1.64,4.23,1.818,6.134,0.734l3.166,3.165
	c0.617,0.619,1.089,0.212,1.477-0.174C12.634,11.912,13.071,11.411,12.453,10.793 M7.335,7.314c-1.287,1.286-3.373,1.286-4.658,0
	c-1.287-1.287-1.287-3.372,0-4.658c1.285-1.286,3.371-1.286,4.658,0C8.623,3.942,8.623,6.028,7.335,7.314"/>
</svg>
